<svg xmlns="http://www.w3.org/2000/svg" xmlns:xlink="http://www.w3.org/1999/xlink" width="400" zoomAndPan="magnify" viewBox="0 0 300 74.999997" height="100" preserveAspectRatio="xMidYMid meet" version="1.0"><defs><g/><clipPath id="094fe8e487"><path d="M 30 21 L 76 21 L 76 55 L 30 55 Z M 30 21 " clip-rule="nonzero"/></clipPath><clipPath id="d15b923677"><path d="M 30.839844 31.363281 C 30.839844 31.363281 30.214844 27.136719 32.296875 25.402344 C 34.378906 23.671875 36.523438 24.15625 37.835938 24.226562 C 39.152344 24.296875 42.480469 25.402344 47.121094 24.988281 C 52.050781 24.546875 56.332031 22.425781 60.628906 21.867188 C 64.925781 21.3125 68.390625 22.355469 68.253906 23.878906 C 68.117188 25.402344 61.8125 24.707031 62.292969 26.304688 C 62.78125 27.898438 71.371094 25.058594 71.996094 27.617188 C 72.648438 30.308594 67.535156 28.59375 67.628906 30.113281 C 67.765625 32.402344 74.902344 29.28125 75.804688 31.984375 C 76.84375 35.105469 68.179688 35.449219 69.292969 37.320312 C 70.402344 39.1875 75.390625 36.761719 75.734375 38.777344 C 76.035156 40.519531 74.605469 41.640625 72.546875 42.171875 C 71.125 42.539062 66.410156 42.71875 66.449219 43.972656 C 66.515625 46.117188 70.328125 44.179688 71.226562 45.289062 C 72.128906 46.394531 69.769531 48.683594 65.683594 48.890625 C 62.910156 49.03125 60.625 47.988281 60.558594 49.027344 C 60.488281 50.066406 63.234375 50.179688 64.296875 50.691406 C 66.03125 51.523438 66.65625 52.355469 65.890625 53.738281 C 65.128906 55.125 63.46875 53.410156 62.289062 53.324219 C 60.417969 53.1875 58.199219 53.878906 56.398438 53.878906 C 54.597656 53.878906 51.199219 52.84375 51.199219 52.84375 C 51.199219 52.84375 51.824219 53.535156 51.199219 54.085938 C 50.574219 54.640625 48.910156 54.574219 46.835938 53.460938 C 44.757812 52.355469 43.230469 52.003906 42.605469 52.003906 C 41.980469 52.003906 38.875 52.070312 38.335938 51.707031 C 34.039062 48.796875 40.25 33.710938 40.25 33.710938 Z M 30.839844 31.363281 " clip-rule="nonzero"/></clipPath><linearGradient x1="131.029888" gradientTransform="matrix(0.492187, 0, 0, 0.492187, 15.000005, 5.966331)" y1="52.465589" x2="25.657456" gradientUnits="userSpaceOnUse" y2="79.098251" id="ef533c0c32"><stop stop-opacity="1" stop-color="rgb(0.39978%, 67.098999%, 27.49939%)" offset="0"/><stop stop-opacity="1" stop-color="rgb(0.39978%, 67.098999%, 27.49939%)" offset="0.0625"/><stop stop-opacity="1" stop-color="rgb(0.39978%, 67.098999%, 27.49939%)" offset="0.09375"/><stop stop-opacity="1" stop-color="rgb(0.43335%, 67.033386%, 27.478027%)" offset="0.109375"/><stop stop-opacity="1" stop-color="rgb(0.590515%, 66.72821%, 27.384949%)" offset="0.113281"/><stop stop-opacity="1" stop-color="rgb(0.714111%, 66.490173%, 27.311707%)" offset="0.117188"/><stop stop-opacity="1" stop-color="rgb(0.836182%, 66.25061%, 27.238464%)" offset="0.121094"/><stop stop-opacity="1" stop-color="rgb(0.959778%, 66.012573%, 27.165222%)" offset="0.125"/><stop stop-opacity="1" stop-color="rgb(1.081848%, 65.77301%, 27.090454%)" offset="0.128906"/><stop stop-opacity="1" stop-color="rgb(1.205444%, 65.534973%, 27.017212%)" offset="0.132813"/><stop stop-opacity="1" stop-color="rgb(1.327515%, 65.29541%, 26.94397%)" offset="0.136719"/><stop stop-opacity="1" stop-color="rgb(1.451111%, 65.057373%, 26.870728%)" offset="0.140625"/><stop stop-opacity="1" stop-color="rgb(1.574707%, 64.81781%, 26.797485%)" offset="0.144531"/><stop stop-opacity="1" stop-color="rgb(1.698303%, 64.579773%, 26.724243%)" offset="0.148438"/><stop stop-opacity="1" stop-color="rgb(1.820374%, 64.34021%, 26.651001%)" offset="0.152344"/><stop stop-opacity="1" stop-color="rgb(1.94397%, 64.102173%, 26.577759%)" offset="0.15625"/><stop stop-opacity="1" stop-color="rgb(2.06604%, 63.86261%, 26.502991%)" offset="0.160156"/><stop stop-opacity="1" stop-color="rgb(2.189636%, 63.624573%, 26.429749%)" offset="0.164062"/><stop stop-opacity="1" stop-color="rgb(2.313232%, 63.38501%, 26.356506%)" offset="0.167969"/><stop stop-opacity="1" stop-color="rgb(2.436829%, 63.146973%, 26.283264%)" offset="0.171875"/><stop stop-opacity="1" stop-color="rgb(2.558899%, 62.90741%, 26.210022%)" offset="0.175781"/><stop stop-opacity="1" stop-color="rgb(2.682495%, 62.669373%, 26.13678%)" offset="0.179688"/><stop stop-opacity="1" stop-color="rgb(2.804565%, 62.42981%, 26.062012%)" offset="0.183594"/><stop stop-opacity="1" stop-color="rgb(2.928162%, 62.191772%, 25.98877%)" offset="0.1875"/><stop stop-opacity="1" stop-color="rgb(3.050232%, 61.952209%, 25.915527%)" offset="0.191406"/><stop stop-opacity="1" stop-color="rgb(3.173828%, 61.714172%, 25.842285%)" offset="0.195312"/><stop stop-opacity="1" stop-color="rgb(3.297424%, 61.474609%, 25.769043%)" offset="0.199219"/><stop stop-opacity="1" stop-color="rgb(3.421021%, 61.236572%, 25.695801%)" offset="0.203125"/><stop stop-opacity="1" stop-color="rgb(3.543091%, 60.997009%, 25.621033%)" offset="0.207031"/><stop stop-opacity="1" stop-color="rgb(3.666687%, 60.758972%, 25.547791%)" offset="0.210938"/><stop stop-opacity="1" stop-color="rgb(3.788757%, 60.519409%, 25.474548%)" offset="0.214844"/><stop stop-opacity="1" stop-color="rgb(3.912354%, 60.281372%, 25.401306%)" offset="0.21875"/><stop stop-opacity="1" stop-color="rgb(4.03595%, 60.041809%, 25.328064%)" offset="0.222656"/><stop stop-opacity="1" stop-color="rgb(4.159546%, 59.803772%, 25.254822%)" offset="0.226562"/><stop stop-opacity="1" stop-color="rgb(4.281616%, 59.564209%, 25.18158%)" offset="0.230469"/><stop stop-opacity="1" stop-color="rgb(4.405212%, 59.326172%, 25.108337%)" offset="0.234375"/><stop stop-opacity="1" stop-color="rgb(4.527283%, 59.086609%, 25.033569%)" offset="0.238281"/><stop stop-opacity="1" stop-color="rgb(4.650879%, 58.848572%, 24.960327%)" offset="0.242188"/><stop stop-opacity="1" stop-color="rgb(4.774475%, 58.609009%, 24.887085%)" offset="0.246094"/><stop stop-opacity="1" stop-color="rgb(4.898071%, 58.370972%, 24.813843%)" offset="0.25"/><stop stop-opacity="1" stop-color="rgb(5.020142%, 58.131409%, 24.740601%)" offset="0.253906"/><stop stop-opacity="1" stop-color="rgb(5.143738%, 57.893372%, 24.667358%)" offset="0.257812"/><stop stop-opacity="1" stop-color="rgb(5.265808%, 57.653809%, 24.59259%)" offset="0.261719"/><stop stop-opacity="1" stop-color="rgb(5.389404%, 57.415771%, 24.519348%)" offset="0.265625"/><stop stop-opacity="1" stop-color="rgb(5.511475%, 57.176208%, 24.446106%)" offset="0.269531"/><stop stop-opacity="1" stop-color="rgb(5.635071%, 56.938171%, 24.372864%)" offset="0.273438"/><stop stop-opacity="1" stop-color="rgb(5.758667%, 56.700134%, 24.299622%)" offset="0.277344"/><stop stop-opacity="1" stop-color="rgb(5.882263%, 56.462097%, 24.226379%)" offset="0.28125"/><stop stop-opacity="1" stop-color="rgb(6.004333%, 56.222534%, 24.151611%)" offset="0.285156"/><stop stop-opacity="1" stop-color="rgb(6.12793%, 55.984497%, 24.078369%)" offset="0.289062"/><stop stop-opacity="1" stop-color="rgb(6.25%, 55.744934%, 24.005127%)" offset="0.292969"/><stop stop-opacity="1" stop-color="rgb(6.373596%, 55.506897%, 23.931885%)" offset="0.296875"/><stop stop-opacity="1" stop-color="rgb(6.497192%, 55.267334%, 23.858643%)" offset="0.300781"/><stop stop-opacity="1" stop-color="rgb(6.620789%, 55.029297%, 23.7854%)" offset="0.304688"/><stop stop-opacity="1" stop-color="rgb(6.742859%, 54.789734%, 23.712158%)" offset="0.308594"/><stop stop-opacity="1" stop-color="rgb(6.866455%, 54.551697%, 23.638916%)" offset="0.3125"/><stop stop-opacity="1" stop-color="rgb(6.990051%, 54.310608%, 23.564148%)" offset="0.316406"/><stop stop-opacity="1" stop-color="rgb(7.113647%, 54.069519%, 23.490906%)" offset="0.320312"/><stop stop-opacity="1" stop-color="rgb(7.249451%, 53.796387%, 23.405457%)" offset="0.324219"/><stop stop-opacity="1" stop-color="rgb(7.385254%, 53.52478%, 23.321533%)" offset="0.328125"/><stop stop-opacity="1" stop-color="rgb(7.521057%, 53.251648%, 23.23761%)" offset="0.332031"/><stop stop-opacity="1" stop-color="rgb(7.65686%, 52.978516%, 23.153687%)" offset="0.335938"/><stop stop-opacity="1" stop-color="rgb(7.792664%, 52.705383%, 23.069763%)" offset="0.339844"/><stop stop-opacity="1" stop-color="rgb(7.928467%, 52.432251%, 22.98584%)" offset="0.34375"/><stop stop-opacity="1" stop-color="rgb(8.06427%, 52.159119%, 22.900391%)" offset="0.347656"/><stop stop-opacity="1" stop-color="rgb(8.200073%, 51.885986%, 22.816467%)" offset="0.351562"/><stop stop-opacity="1" stop-color="rgb(8.335876%, 51.612854%, 22.732544%)" offset="0.355469"/><stop stop-opacity="1" stop-color="rgb(8.473206%, 51.339722%, 22.648621%)" offset="0.359375"/><stop stop-opacity="1" stop-color="rgb(8.609009%, 51.066589%, 22.564697%)" offset="0.363281"/><stop stop-opacity="1" stop-color="rgb(8.744812%, 50.794983%, 22.480774%)" offset="0.367188"/><stop stop-opacity="1" stop-color="rgb(8.880615%, 50.521851%, 22.395325%)" offset="0.371094"/><stop stop-opacity="1" stop-color="rgb(9.016418%, 50.248718%, 22.311401%)" offset="0.375"/><stop stop-opacity="1" stop-color="rgb(9.152222%, 49.975586%, 22.227478%)" offset="0.378906"/><stop stop-opacity="1" stop-color="rgb(9.288025%, 49.702454%, 22.143555%)" offset="0.382813"/><stop stop-opacity="1" stop-color="rgb(9.423828%, 49.429321%, 22.059631%)" offset="0.386719"/><stop stop-opacity="1" stop-color="rgb(9.559631%, 49.156189%, 21.975708%)" offset="0.390625"/><stop stop-opacity="1" stop-color="rgb(9.695435%, 48.883057%, 21.890259%)" offset="0.394531"/><stop stop-opacity="1" stop-color="rgb(9.831238%, 48.61145%, 21.806335%)" offset="0.398438"/><stop stop-opacity="1" stop-color="rgb(9.967041%, 48.338318%, 21.722412%)" offset="0.402344"/><stop stop-opacity="1" stop-color="rgb(10.102844%, 48.065186%, 21.638489%)" offset="0.40625"/><stop stop-opacity="1" stop-color="rgb(10.238647%, 47.792053%, 21.554565%)" offset="0.410156"/><stop stop-opacity="1" stop-color="rgb(10.374451%, 47.518921%, 21.470642%)" offset="0.414062"/><stop stop-opacity="1" stop-color="rgb(10.510254%, 47.245789%, 21.385193%)" offset="0.417969"/><stop stop-opacity="1" stop-color="rgb(10.646057%, 46.972656%, 21.30127%)" offset="0.421875"/><stop stop-opacity="1" stop-color="rgb(10.78186%, 46.699524%, 21.217346%)" offset="0.425781"/><stop stop-opacity="1" stop-color="rgb(10.917664%, 46.427917%, 21.133423%)" offset="0.429688"/><stop stop-opacity="1" stop-color="rgb(11.053467%, 46.154785%, 21.0495%)" offset="0.433594"/><stop stop-opacity="1" stop-color="rgb(11.190796%, 45.881653%, 20.965576%)" offset="0.4375"/><stop stop-opacity="1" stop-color="rgb(11.326599%, 45.608521%, 20.880127%)" offset="0.441406"/><stop stop-opacity="1" stop-color="rgb(11.462402%, 45.335388%, 20.796204%)" offset="0.445312"/><stop stop-opacity="1" stop-color="rgb(11.598206%, 45.062256%, 20.71228%)" offset="0.449219"/><stop stop-opacity="1" stop-color="rgb(11.734009%, 44.789124%, 20.628357%)" offset="0.453125"/><stop stop-opacity="1" stop-color="rgb(11.869812%, 44.515991%, 20.544434%)" offset="0.457031"/><stop stop-opacity="1" stop-color="rgb(12.005615%, 44.242859%, 20.46051%)" offset="0.460938"/><stop stop-opacity="1" stop-color="rgb(12.141418%, 43.969727%, 20.375061%)" offset="0.464844"/><stop stop-opacity="1" stop-color="rgb(12.277222%, 43.69812%, 20.291138%)" offset="0.46875"/><stop stop-opacity="1" stop-color="rgb(12.413025%, 43.424988%, 20.207214%)" offset="0.472656"/><stop stop-opacity="1" stop-color="rgb(12.548828%, 43.151855%, 20.123291%)" offset="0.476562"/><stop stop-opacity="1" stop-color="rgb(12.684631%, 42.878723%, 20.039368%)" offset="0.480469"/><stop stop-opacity="1" stop-color="rgb(12.820435%, 42.605591%, 19.955444%)" offset="0.484375"/><stop stop-opacity="1" stop-color="rgb(12.956238%, 42.332458%, 19.869995%)" offset="0.488281"/><stop stop-opacity="1" stop-color="rgb(13.092041%, 42.059326%, 19.786072%)" offset="0.492188"/><stop stop-opacity="1" stop-color="rgb(13.227844%, 41.786194%, 19.702148%)" offset="0.496094"/><stop stop-opacity="1" stop-color="rgb(13.363647%, 41.514587%, 19.618225%)" offset="0.5"/><stop stop-opacity="1" stop-color="rgb(13.499451%, 41.241455%, 19.534302%)" offset="0.503906"/><stop stop-opacity="1" stop-color="rgb(13.635254%, 40.968323%, 19.450378%)" offset="0.507812"/><stop stop-opacity="1" stop-color="rgb(13.771057%, 40.69519%, 19.364929%)" offset="0.511719"/><stop stop-opacity="1" stop-color="rgb(13.908386%, 40.422058%, 19.281006%)" offset="0.515625"/><stop stop-opacity="1" stop-color="rgb(14.044189%, 40.148926%, 19.197083%)" offset="0.519531"/><stop stop-opacity="1" stop-color="rgb(14.179993%, 39.875793%, 19.113159%)" offset="0.523438"/><stop stop-opacity="1" stop-color="rgb(14.315796%, 39.602661%, 19.029236%)" offset="0.527344"/><stop stop-opacity="1" stop-color="rgb(14.451599%, 39.331055%, 18.945312%)" offset="0.53125"/><stop stop-opacity="1" stop-color="rgb(14.587402%, 39.057922%, 18.859863%)" offset="0.535156"/><stop stop-opacity="1" stop-color="rgb(14.723206%, 38.78479%, 18.77594%)" offset="0.539062"/><stop stop-opacity="1" stop-color="rgb(14.859009%, 38.511658%, 18.692017%)" offset="0.542969"/><stop stop-opacity="1" stop-color="rgb(14.994812%, 38.238525%, 18.608093%)" offset="0.546875"/><stop stop-opacity="1" stop-color="rgb(15.130615%, 37.965393%, 18.52417%)" offset="0.550781"/><stop stop-opacity="1" stop-color="rgb(15.266418%, 37.692261%, 18.440247%)" offset="0.554688"/><stop stop-opacity="1" stop-color="rgb(15.402222%, 37.419128%, 18.354797%)" offset="0.558594"/><stop stop-opacity="1" stop-color="rgb(15.538025%, 37.145996%, 18.270874%)" offset="0.5625"/><stop stop-opacity="1" stop-color="rgb(15.673828%, 36.872864%, 18.186951%)" offset="0.566406"/><stop stop-opacity="1" stop-color="rgb(15.809631%, 36.601257%, 18.103027%)" offset="0.570312"/><stop stop-opacity="1" stop-color="rgb(15.945435%, 36.328125%, 18.019104%)" offset="0.574219"/><stop stop-opacity="1" stop-color="rgb(16.081238%, 36.054993%, 17.935181%)" offset="0.578125"/><stop stop-opacity="1" stop-color="rgb(16.217041%, 35.78186%, 17.849731%)" offset="0.582031"/><stop stop-opacity="1" stop-color="rgb(16.352844%, 35.508728%, 17.765808%)" offset="0.585938"/><stop stop-opacity="1" stop-color="rgb(16.488647%, 35.235596%, 17.681885%)" offset="0.589844"/><stop stop-opacity="1" stop-color="rgb(16.625977%, 34.962463%, 17.597961%)" offset="0.59375"/><stop stop-opacity="1" stop-color="rgb(16.76178%, 34.689331%, 17.514038%)" offset="0.597656"/><stop stop-opacity="1" stop-color="rgb(16.897583%, 34.417725%, 17.430115%)" offset="0.601562"/><stop stop-opacity="1" stop-color="rgb(17.033386%, 34.144592%, 17.344666%)" offset="0.605469"/><stop stop-opacity="1" stop-color="rgb(17.169189%, 33.87146%, 17.260742%)" offset="0.609375"/><stop stop-opacity="1" stop-color="rgb(17.304993%, 33.598328%, 17.176819%)" offset="0.613281"/><stop stop-opacity="1" stop-color="rgb(17.440796%, 33.325195%, 17.092896%)" offset="0.617188"/><stop stop-opacity="1" stop-color="rgb(17.576599%, 33.052063%, 17.008972%)" offset="0.621094"/><stop stop-opacity="1" stop-color="rgb(17.712402%, 32.778931%, 16.925049%)" offset="0.625"/><stop stop-opacity="1" stop-color="rgb(17.848206%, 32.505798%, 16.841125%)" offset="0.628906"/><stop stop-opacity="1" stop-color="rgb(17.984009%, 32.232666%, 16.757202%)" offset="0.632812"/><stop stop-opacity="1" stop-color="rgb(18.119812%, 31.959534%, 16.671753%)" offset="0.636719"/><stop stop-opacity="1" stop-color="rgb(18.255615%, 31.687927%, 16.58783%)" offset="0.640625"/><stop stop-opacity="1" stop-color="rgb(18.327332%, 31.542969%, 16.543579%)" offset="0.65625"/><stop stop-opacity="1" stop-color="rgb(18.399048%, 31.399536%, 16.499329%)" offset="0.6875"/><stop stop-opacity="1" stop-color="rgb(18.399048%, 31.399536%, 16.499329%)" offset="0.75"/><stop stop-opacity="1" stop-color="rgb(18.399048%, 31.399536%, 16.499329%)" offset="0.84511"/><stop stop-opacity="1" stop-color="rgb(18.399048%, 31.399536%, 16.499329%)" offset="1"/></linearGradient></defs><path fill="#78de89" d="M 23.238281 20.71875 C 26.886719 15.871094 32.453125 18.75 34.003906 19.839844 C 35.574219 20.949219 39.132812 22.378906 41.027344 21.828125 C 42.921875 21.273438 43.804688 18.402344 42.601562 17.527344 C 41.085938 16.421875 39.914062 17.546875 39.964844 18.550781 C 39.984375 18.964844 40.289062 19.847656 39.59375 20.027344 C 39.234375 20.121094 38.808594 19.660156 38.667969 19.058594 C 38.53125 18.457031 38.542969 17.679688 39.132812 16.699219 C 40.367188 14.652344 44.308594 15.15625 44.925781 18.011719 C 45.515625 20.777344 43.699219 22.691406 41.902344 23.351562 C 39.253906 24.324219 35.554688 23.191406 33.820312 21.875 C 31.632812 20.207031 27.449219 19.179688 25.183594 21.828125 C 21.90625 25.664062 28.511719 33.007812 28.511719 33.007812 L 25.921875 35.039062 C 25.921875 35.039062 25.183594 33.609375 23.65625 30.375 C 22.21875 27.332031 21.09375 23.566406 23.238281 20.71875 Z M 23.238281 20.71875 " fill-opacity="1" fill-rule="nonzero"/><path fill="#d43330" d="M 33.722656 38.042969 L 27.71875 38.875 C 27.71875 38.875 28.085938 40.074219 28.226562 40.949219 C 28.363281 41.828125 28.511719 43.703125 27.898438 44.089844 C 26.742188 44.828125 25.453125 43.121094 22.078125 43.535156 C 20.21875 43.765625 17.503906 44.78125 17.273438 47.277344 C 17.027344 49.957031 19.902344 46.960938 22.078125 46.769531 C 23.648438 46.632812 24.15625 48.433594 24.15625 48.433594 C 24.15625 48.433594 28.03125 51.710938 28.265625 51.253906 C 28.496094 50.789062 39.347656 42.519531 39.347656 42.519531 Z M 33.722656 38.042969 " fill-opacity="1" fill-rule="nonzero"/><path fill="#fffafe" d="M 26.199219 39.148438 C 26.199219 39.148438 25.921875 41.921875 26.796875 42.152344 C 27.675781 42.382812 28.1875 40.765625 28.1875 40.765625 C 28.1875 40.765625 28.972656 40.625 30.449219 40.625 C 31.332031 40.625 32.574219 40.949219 32.574219 40.949219 C 32.574219 40.949219 32.28125 42.148438 33.082031 42.566406 C 34.050781 43.074219 35.992188 39.425781 35.992188 39.425781 L 29.0625 38.222656 Z M 26.199219 39.148438 " fill-opacity="1" fill-rule="nonzero"/><path fill="#fffafe" d="M 24.535156 49.359375 C 24.535156 49.359375 24.996094 47.28125 25.132812 46.816406 C 25.273438 46.355469 25.546875 45.339844 26.011719 45.246094 C 26.472656 45.152344 27.117188 46.035156 27.117188 46.035156 C 27.117188 46.035156 28.824219 44.789062 29.242188 44.558594 C 29.664062 44.328125 30.90625 43.820312 30.90625 43.820312 C 30.90625 43.820312 30.863281 42.632812 31.550781 42.527344 C 32.753906 42.339844 33.078125 44.742188 33.078125 44.742188 L 27.8125 50.238281 Z M 24.535156 49.359375 " fill-opacity="1" fill-rule="nonzero"/><path fill="#bcce46" d="M 26.335938 53.398438 C 26.335938 53.398438 26.824219 55.824219 30.769531 58.175781 C 34.71875 60.53125 37.144531 60.949219 38.601562 61.085938 C 40.058594 61.222656 41.507812 61.222656 41.507812 60.53125 C 41.507812 60.027344 40.472656 59.421875 39.152344 59.140625 C 37.835938 58.867188 37.28125 58.515625 37.625 57.964844 C 38.25 56.972656 41.433594 59.003906 44.070312 59.421875 C 46.703125 59.835938 51.96875 61.15625 52.449219 59.078125 C 52.933594 57 48.984375 58.453125 48.777344 57 C 48.570312 55.542969 52.65625 55.6875 55.222656 56.515625 C 57.785156 57.347656 60 59.632812 60.96875 59.773438 C 61.941406 59.910156 62.644531 59.152344 62.359375 58.039062 C 62.035156 56.792969 61.25 55.683594 59.863281 54.78125 C 58.476562 53.878906 52.03125 51.246094 52.03125 51.246094 L 37.90625 50.214844 L 32.707031 50.351562 Z M 26.335938 53.398438 " fill-opacity="1" fill-rule="nonzero"/><g clip-path="url(#094fe8e487)"><g clip-path="url(#d15b923677)"><path fill="url(#ef533c0c32)" d="M 30.214844 21.3125 L 30.214844 55.125 L 76.84375 55.125 L 76.84375 21.3125 Z M 30.214844 21.3125 " fill-rule="nonzero"/></g></g><path fill="#feb30b" d="M 42.039062 28.890625 C 42.039062 28.890625 46.519531 27.183594 48.785156 24.363281 C 50.230469 22.5625 51.1875 18.773438 53.632812 19.886719 C 56.683594 21.269531 51.113281 25.679688 51.738281 25.847656 C 52.613281 26.078125 55.203125 23.8125 56.816406 22.054688 C 58.429688 20.300781 60.410156 19.53125 61.480469 20.855469 C 62.683594 22.332031 60.695312 24.828125 57.785156 26.675781 C 54.878906 28.523438 52.179688 29.511719 50.394531 29.816406 C 48.5 30.144531 44.894531 30.1875 44.894531 30.1875 L 41.386719 30.09375 Z M 42.039062 28.890625 " fill-opacity="1" fill-rule="nonzero"/><path fill="#01ab46" d="M 48.226562 37.324219 C 48.226562 37.324219 50.0625 38.257812 52.457031 36.285156 C 53.941406 35.058594 55.75 34.03125 58.277344 33.375 C 60.945312 32.683594 61.984375 33.066406 63.304688 32.648438 C 64.617188 32.234375 66.207031 31.746094 67.078125 31.507812 C 68.324219 31.160156 69.515625 32.917969 67.421875 34.070312 C 66.035156 34.832031 64.269531 35.28125 63.058594 35.421875 C 62.363281 35.503906 60.453125 35.988281 59.777344 36.246094 C 58.390625 36.765625 57.03125 38.023438 57.03125 38.023438 C 57.03125 38.023438 60.503906 36.71875 62.507812 36.566406 C 64.933594 36.378906 67.601562 36.496094 68.363281 36.078125 C 69.125 35.664062 71.304688 34.585938 72.070312 35.941406 C 72.820312 37.273438 70.753906 38.953125 68.605469 39.441406 C 66.453125 39.925781 63.996094 39.648438 61.707031 40.097656 C 60.304688 40.375 57.726562 41.414062 54.949219 43.144531 C 52.179688 44.878906 49.410156 45.503906 48.089844 45.359375 C 46.777344 45.222656 44.347656 48.6875 44.347656 48.6875 L 36.3125 49.726562 L 30.699219 51.664062 C 30.699219 51.664062 28.832031 55.269531 25.160156 54.023438 C 21.488281 52.777344 22.25 48.199219 23.425781 47.925781 C 24.601562 47.648438 25.160156 49.101562 26.265625 48.757812 C 27.375 48.414062 29.519531 45.378906 31.464844 44.667969 C 33.265625 44.007812 35.519531 44.179688 35.519531 41.621094 C 35.519531 39.0625 30.011719 39.472656 28.761719 39.613281 C 27.515625 39.75 22.800781 41.34375 20.167969 39.269531 C 17.535156 37.191406 16.832031 29.660156 20.304688 28.667969 C 23.214844 27.835938 25.847656 31.644531 28.6875 31.644531 C 30.976562 31.644531 31.5625 29.703125 33.917969 27.695312 C 35.65625 26.214844 37.625 25.585938 39.015625 26.238281 C 40.164062 26.785156 36.449219 27.902344 37.144531 28.179688 C 37.144531 28.179688 39.640625 27.210938 41.578125 27.140625 C 43.515625 27.070312 43.902344 27.328125 44.140625 27.765625 C 44.488281 28.390625 42.273438 28.390625 42.828125 28.941406 C 43.382812 29.496094 45.738281 28.597656 47.261719 28.871094 C 48.789062 29.148438 48.789062 29.910156 48.4375 30.1875 C 48.09375 30.460938 45.703125 30.949219 45.667969 31.644531 C 45.644531 32.125 47.164062 32.238281 47.921875 33.101562 C 48.683594 33.96875 48.546875 35.175781 48.480469 35.804688 C 48.398438 36.421875 48.226562 37.324219 48.226562 37.324219 Z M 48.226562 37.324219 " fill-opacity="1" fill-rule="nonzero"/><path fill="#78de8a" d="M 37.769531 31.574219 C 36.28125 31.742188 33.574219 29.394531 32.125 32.890625 C 30.945312 35.722656 34.976562 37.8125 37.457031 35.902344 C 38.589844 35.035156 39.226562 33.925781 40.089844 33.0625 C 40.664062 32.492188 41.40625 32.082031 41.582031 31.535156 C 41.886719 30.570312 39.324219 31.402344 37.769531 31.574219 Z M 37.769531 31.574219 " fill-opacity="1" fill-rule="nonzero"/><path fill="#78de8a" d="M 30.734375 51.980469 C 30.734375 51.980469 31.257812 49.039062 33.925781 48.101562 C 36.59375 47.167969 41.441406 47.964844 42.519531 47.617188 C 43.589844 47.269531 45.09375 46.695312 45.394531 43.875 C 45.632812 41.585938 44.90625 41.378906 44.765625 38.4375 C 44.605469 35.003906 46.84375 34.167969 47.609375 34.207031 C 48.234375 34.242188 48.714844 34.660156 48.75 35.144531 C 48.796875 35.84375 48.679688 36.25 48.679688 36.25 C 48.679688 36.25 49.910156 36.496094 50.171875 38.464844 C 50.550781 41.375 48.371094 42.660156 48.199219 44.214844 C 48.027344 45.773438 48.199219 48.511719 45.738281 49.894531 C 43.277344 51.277344 43.058594 50.503906 41.269531 51.105469 C 40.5625 51.339844 39.363281 52.039062 37.976562 51.832031 C 36.585938 51.625 36.207031 51.070312 34.40625 51.070312 C 33.015625 51.082031 30.734375 51.980469 30.734375 51.980469 Z M 30.734375 51.980469 " fill-opacity="1" fill-rule="nonzero"/><path fill="#2a2c33" d="M 35.96875 34.632812 C 35.367188 35.359375 34.175781 35.527344 33.445312 35.058594 C 32.695312 34.578125 32.78125 33.273438 33.492188 32.425781 C 34.207031 31.578125 35.367188 31.433594 36.054688 32.011719 C 36.746094 32.589844 36.671875 33.78125 35.96875 34.632812 Z M 35.96875 34.632812 " fill-opacity="1" fill-rule="nonzero"/><path fill="#44484a" d="M 20.90625 31.179688 C 20.378906 31.765625 20.882812 32.476562 21.070312 32.636719 C 21.253906 32.800781 21.738281 33.125 21.644531 33.515625 C 21.550781 33.90625 20.949219 34.691406 21.386719 35.058594 C 21.828125 35.429688 22.957031 34.734375 23.097656 33.421875 C 23.234375 32.105469 22.660156 31.527344 22.359375 31.25 C 22.0625 30.972656 21.34375 30.695312 20.90625 31.179688 Z M 20.90625 31.179688 " fill-opacity="1" fill-rule="nonzero"/><g fill="#7ed957" fill-opacity="1"><g transform="translate(87.323422, 50.179497)"><g><path d="M 1.203125 -25.046875 L 10.671875 -25.046875 C 11.347656 -25.046875 11.875 -25.039062 12.25 -25.03125 C 12.625 -25.019531 12.914062 -25.015625 13.125 -25.015625 C 13.34375 -25.015625 13.492188 -25.007812 13.578125 -25 C 13.660156 -24.988281 13.765625 -24.96875 13.890625 -24.9375 C 15.367188 -24.71875 16.375 -24.066406 16.90625 -22.984375 C 17.101562 -22.554688 17.25 -21.785156 17.34375 -20.671875 C 17.445312 -19.554688 17.5 -18.210938 17.5 -16.640625 L 17.5 -9.875 C 17.5 -8.601562 17.460938 -7.363281 17.390625 -6.15625 C 17.316406 -4.957031 17.21875 -3.992188 17.09375 -3.265625 C 16.738281 -1.265625 15.632812 -0.203125 13.78125 -0.078125 C 13.707031 -0.078125 13.46875 -0.0664062 13.0625 -0.046875 C 12.664062 -0.0351562 11.867188 -0.0195312 10.671875 0 L 1.203125 0 Z M 9.125 -5.515625 C 9.820312 -5.515625 10.269531 -5.648438 10.46875 -5.921875 C 10.675781 -6.203125 10.78125 -6.796875 10.78125 -7.703125 L 10.78125 -17.390625 C 10.78125 -18.316406 10.675781 -18.914062 10.46875 -19.1875 C 10.269531 -19.46875 9.820312 -19.609375 9.125 -19.609375 L 7.921875 -19.609375 L 7.921875 -5.515625 Z M 9.125 -5.515625 "/></g></g></g><g fill="#7ed957" fill-opacity="1"><g transform="translate(105.804458, 50.179497)"><g><path d="M 1.09375 -19.234375 L 7.0625 -19.234375 L 7.0625 -16.75 C 7.632812 -17.707031 8.203125 -18.378906 8.765625 -18.765625 C 9.328125 -19.148438 10.050781 -19.34375 10.9375 -19.34375 C 11.132812 -19.34375 11.300781 -19.328125 11.4375 -19.296875 C 11.570312 -19.273438 11.753906 -19.21875 11.984375 -19.125 L 11.53125 -12.625 C 11.082031 -12.84375 10.6875 -13.023438 10.34375 -13.171875 C 10.007812 -13.328125 9.675781 -13.46875 9.34375 -13.59375 C 9.019531 -13.71875 8.675781 -13.84375 8.3125 -13.96875 C 7.957031 -14.09375 7.539062 -14.234375 7.0625 -14.390625 L 7.0625 0 L 1.09375 0 Z M 1.09375 -19.234375 "/></g></g></g><g fill="#7ed957" fill-opacity="1"><g transform="translate(117.711958, 50.179497)"><g><path d="M 5.109375 0.078125 C 4.035156 0.078125 3.265625 0.0078125 2.796875 -0.125 C 2.335938 -0.269531 1.96875 -0.539062 1.6875 -0.9375 C 1.46875 -1.289062 1.296875 -1.816406 1.171875 -2.515625 C 1.046875 -3.210938 0.984375 -4.015625 0.984375 -4.921875 L 0.984375 -15.171875 C 0.984375 -16.097656 1.035156 -16.800781 1.140625 -17.28125 C 1.253906 -17.757812 1.460938 -18.144531 1.765625 -18.4375 C 2.367188 -19.039062 3.21875 -19.34375 4.3125 -19.34375 L 5.59375 -19.34375 C 6.070312 -19.34375 6.476562 -19.316406 6.8125 -19.265625 C 7.15625 -19.210938 7.457031 -19.128906 7.71875 -19.015625 C 7.976562 -18.910156 8.222656 -18.753906 8.453125 -18.546875 C 8.679688 -18.347656 8.921875 -18.085938 9.171875 -17.765625 L 9.609375 -17.203125 L 9.609375 -19.234375 L 15.59375 -19.234375 L 15.59375 0 L 9.609375 0 L 9.609375 -2.109375 C 9.359375 -1.628906 9.132812 -1.242188 8.9375 -0.953125 C 8.738281 -0.671875 8.519531 -0.453125 8.28125 -0.296875 C 8.039062 -0.148438 7.769531 -0.0507812 7.46875 0 C 7.175781 0.0507812 6.789062 0.078125 6.3125 0.078125 Z M 9.609375 -12.703125 C 9.609375 -14.148438 9.160156 -14.875 8.265625 -14.875 C 7.390625 -14.875 6.953125 -14.148438 6.953125 -12.703125 L 6.953125 -6.765625 C 6.953125 -5.304688 7.398438 -4.578125 8.296875 -4.578125 C 9.171875 -4.578125 9.609375 -5.304688 9.609375 -6.765625 Z M 9.609375 -12.703125 "/></g></g></g><g fill="#7ed957" fill-opacity="1"><g transform="translate(134.389963, 50.179497)"><g><path d="M 5.1875 6.34375 C 4.332031 6.34375 3.632812 6.296875 3.09375 6.203125 C 2.5625 6.117188 2.140625 5.960938 1.828125 5.734375 C 1.515625 5.515625 1.300781 5.203125 1.1875 4.796875 C 1.070312 4.398438 1.015625 3.890625 1.015625 3.265625 L 1.015625 1.5 L 6.015625 1.5 C 6.035156 2.125 6.175781 2.5625 6.4375 2.8125 C 6.707031 3.0625 7.164062 3.1875 7.8125 3.1875 C 8.539062 3.1875 9.050781 3.0625 9.34375 2.8125 C 9.644531 2.5625 9.796875 2.125 9.796875 1.5 L 9.796875 0 L 6.015625 0 C 5.359375 0 4.828125 -0.00390625 4.421875 -0.015625 C 4.023438 -0.0234375 3.695312 -0.0507812 3.4375 -0.09375 C 3.175781 -0.132812 2.953125 -0.1875 2.765625 -0.25 C 2.578125 -0.3125 2.394531 -0.390625 2.21875 -0.484375 C 1.789062 -0.765625 1.476562 -1.175781 1.28125 -1.71875 C 1.082031 -2.269531 0.984375 -3.035156 0.984375 -4.015625 C 0.984375 -4.066406 0.984375 -4.148438 0.984375 -4.265625 C 0.984375 -4.378906 0.992188 -4.5 1.015625 -4.625 L 1.015625 -13.859375 C 1.015625 -14.679688 1.019531 -15.335938 1.03125 -15.828125 C 1.039062 -16.316406 1.078125 -16.710938 1.140625 -17.015625 C 1.203125 -17.316406 1.285156 -17.554688 1.390625 -17.734375 C 1.492188 -17.910156 1.644531 -18.082031 1.84375 -18.25 C 2.21875 -18.601562 2.765625 -18.851562 3.484375 -19 C 4.210938 -19.15625 5.304688 -19.234375 6.765625 -19.234375 L 10.296875 -19.234375 C 11.566406 -19.234375 12.566406 -19.1875 13.296875 -19.09375 C 14.023438 -19.007812 14.566406 -18.785156 14.921875 -18.421875 C 15.285156 -18.054688 15.519531 -17.515625 15.625 -16.796875 C 15.726562 -16.085938 15.78125 -15.109375 15.78125 -13.859375 L 15.78125 1.5 C 15.78125 2.15625 15.765625 2.6875 15.734375 3.09375 C 15.710938 3.507812 15.675781 3.859375 15.625 4.140625 C 15.570312 4.429688 15.488281 4.671875 15.375 4.859375 C 15.269531 5.046875 15.140625 5.226562 14.984375 5.40625 C 14.835938 5.5625 14.703125 5.679688 14.578125 5.765625 C 14.453125 5.847656 14.300781 5.921875 14.125 5.984375 C 13.945312 6.046875 13.71875 6.097656 13.4375 6.140625 C 13.164062 6.179688 12.804688 6.210938 12.359375 6.234375 C 11.828125 6.285156 11.488281 6.316406 11.34375 6.328125 C 11.195312 6.335938 11.0625 6.34375 10.9375 6.34375 Z M 9.796875 -12.578125 C 9.796875 -13.304688 9.679688 -13.832031 9.453125 -14.15625 C 9.234375 -14.488281 8.863281 -14.65625 8.34375 -14.65625 C 7.4375 -14.65625 6.984375 -13.960938 6.984375 -12.578125 L 6.984375 -6.53125 C 6.984375 -5.8125 7.09375 -5.285156 7.3125 -4.953125 C 7.539062 -4.628906 7.921875 -4.46875 8.453125 -4.46875 C 9.347656 -4.46875 9.796875 -5.15625 9.796875 -6.53125 Z M 9.796875 -12.578125 "/></g></g></g><g fill="#7ed957" fill-opacity="1"><g transform="translate(151.255785, 50.179497)"><g><path d="M 6.71875 0 C 5.269531 0 4.179688 -0.0703125 3.453125 -0.21875 C 2.722656 -0.375 2.171875 -0.628906 1.796875 -0.984375 C 1.597656 -1.148438 1.445312 -1.320312 1.34375 -1.5 C 1.25 -1.675781 1.171875 -1.90625 1.109375 -2.1875 C 1.046875 -2.476562 1.007812 -2.867188 1 -3.359375 C 0.988281 -3.847656 0.984375 -4.503906 0.984375 -5.328125 L 0.984375 -13.859375 C 0.984375 -14.679688 0.988281 -15.335938 1 -15.828125 C 1.007812 -16.316406 1.046875 -16.710938 1.109375 -17.015625 C 1.171875 -17.316406 1.25 -17.554688 1.34375 -17.734375 C 1.445312 -17.910156 1.597656 -18.082031 1.796875 -18.25 C 2.171875 -18.601562 2.722656 -18.851562 3.453125 -19 C 4.179688 -19.15625 5.269531 -19.234375 6.71875 -19.234375 L 10.03125 -19.234375 C 11.457031 -19.234375 12.53125 -19.15625 13.25 -19 C 13.976562 -18.851562 14.53125 -18.601562 14.90625 -18.25 C 15.082031 -18.082031 15.226562 -17.910156 15.34375 -17.734375 C 15.457031 -17.554688 15.546875 -17.316406 15.609375 -17.015625 C 15.671875 -16.710938 15.707031 -16.316406 15.71875 -15.828125 C 15.726562 -15.335938 15.734375 -14.679688 15.734375 -13.859375 L 15.734375 -5.328125 C 15.734375 -4.503906 15.726562 -3.847656 15.71875 -3.359375 C 15.707031 -2.867188 15.671875 -2.476562 15.609375 -2.1875 C 15.546875 -1.90625 15.457031 -1.675781 15.34375 -1.5 C 15.226562 -1.320312 15.082031 -1.148438 14.90625 -0.984375 C 14.53125 -0.628906 13.976562 -0.375 13.25 -0.21875 C 12.53125 -0.0703125 11.457031 0 10.03125 0 Z M 9.765625 -12.578125 C 9.765625 -13.304688 9.648438 -13.832031 9.421875 -14.15625 C 9.203125 -14.488281 8.828125 -14.65625 8.296875 -14.65625 C 7.398438 -14.65625 6.953125 -13.960938 6.953125 -12.578125 L 6.953125 -6.53125 C 6.953125 -5.8125 7.0625 -5.285156 7.28125 -4.953125 C 7.507812 -4.628906 7.882812 -4.46875 8.40625 -4.46875 C 9.3125 -4.46875 9.765625 -5.15625 9.765625 -6.53125 Z M 9.765625 -12.578125 "/></g></g></g><g fill="#7ed957" fill-opacity="1"><g transform="translate(167.971359, 50.179497)"><g><path d="M 1.09375 -19.234375 L 7.0625 -19.234375 L 7.0625 -17.171875 C 7.3125 -17.585938 7.566406 -17.929688 7.828125 -18.203125 C 8.085938 -18.484375 8.378906 -18.707031 8.703125 -18.875 C 9.035156 -19.039062 9.414062 -19.15625 9.84375 -19.21875 C 10.269531 -19.28125 10.769531 -19.3125 11.34375 -19.3125 C 12.539062 -19.3125 13.453125 -19.191406 14.078125 -18.953125 C 14.710938 -18.710938 15.164062 -18.304688 15.4375 -17.734375 C 15.507812 -17.554688 15.570312 -17.394531 15.625 -17.25 C 15.675781 -17.113281 15.710938 -16.890625 15.734375 -16.578125 C 15.765625 -16.265625 15.785156 -15.8125 15.796875 -15.21875 C 15.804688 -14.632812 15.8125 -13.804688 15.8125 -12.734375 L 15.8125 0 L 9.84375 0 L 9.84375 -12.703125 C 9.84375 -14.148438 9.363281 -14.875 8.40625 -14.875 C 7.507812 -14.875 7.0625 -14.125 7.0625 -12.625 L 7.0625 0 L 1.09375 0 Z M 1.09375 -19.234375 "/></g></g></g><g fill="#de9832" fill-opacity="1"><g transform="translate(184.876351, 50.179497)"><g><path d="M 7.625 0 C 6.820312 0 6.1875 -0.00390625 5.71875 -0.015625 C 5.257812 -0.0234375 4.898438 -0.0390625 4.640625 -0.0625 C 4.378906 -0.09375 4.175781 -0.113281 4.03125 -0.125 C 3.894531 -0.144531 3.753906 -0.175781 3.609375 -0.21875 C 3.078125 -0.375 2.640625 -0.617188 2.296875 -0.953125 C 1.960938 -1.296875 1.695312 -1.796875 1.5 -2.453125 C 1.300781 -3.117188 1.164062 -3.976562 1.09375 -5.03125 C 1.019531 -6.082031 0.984375 -7.410156 0.984375 -9.015625 L 0.984375 -17.015625 C 0.984375 -17.367188 0.992188 -17.78125 1.015625 -18.25 C 1.035156 -18.726562 1.066406 -19.191406 1.109375 -19.640625 C 1.148438 -20.097656 1.1875 -20.523438 1.21875 -20.921875 C 1.257812 -21.316406 1.304688 -21.617188 1.359375 -21.828125 C 1.523438 -22.703125 1.800781 -23.367188 2.1875 -23.828125 C 2.582031 -24.296875 3.128906 -24.628906 3.828125 -24.828125 C 3.984375 -24.847656 4.140625 -24.867188 4.296875 -24.890625 C 4.460938 -24.921875 4.675781 -24.945312 4.9375 -24.96875 C 5.195312 -25 5.539062 -25.019531 5.96875 -25.03125 C 6.394531 -25.039062 6.945312 -25.046875 7.625 -25.046875 L 11.90625 -25.046875 L 11.90625 -19.609375 L 10.703125 -19.609375 C 10.253906 -19.609375 9.890625 -19.597656 9.609375 -19.578125 C 9.335938 -19.566406 9.113281 -19.550781 8.9375 -19.53125 C 8.757812 -19.507812 8.613281 -19.457031 8.5 -19.375 C 8.394531 -19.300781 8.289062 -19.21875 8.1875 -19.125 C 7.957031 -18.894531 7.816406 -18.632812 7.765625 -18.34375 C 7.722656 -18.0625 7.703125 -17.46875 7.703125 -16.5625 L 7.703125 -8.484375 C 7.703125 -7.585938 7.734375 -6.992188 7.796875 -6.703125 C 7.859375 -6.410156 7.988281 -6.15625 8.1875 -5.9375 C 8.289062 -5.8125 8.394531 -5.71875 8.5 -5.65625 C 8.613281 -5.59375 8.757812 -5.546875 8.9375 -5.515625 C 9.113281 -5.492188 9.335938 -5.476562 9.609375 -5.46875 C 9.890625 -5.457031 10.253906 -5.453125 10.703125 -5.453125 L 12.09375 -5.453125 L 12.09375 0 Z M 7.625 0 "/></g></g></g><g fill="#de9832" fill-opacity="1"><g transform="translate(197.347298, 50.179497)"><g><path d="M 5.109375 0.078125 C 4.035156 0.078125 3.265625 0.0078125 2.796875 -0.125 C 2.335938 -0.269531 1.96875 -0.539062 1.6875 -0.9375 C 1.46875 -1.289062 1.296875 -1.816406 1.171875 -2.515625 C 1.046875 -3.210938 0.984375 -4.015625 0.984375 -4.921875 L 0.984375 -15.171875 C 0.984375 -16.097656 1.035156 -16.800781 1.140625 -17.28125 C 1.253906 -17.757812 1.460938 -18.144531 1.765625 -18.4375 C 2.367188 -19.039062 3.21875 -19.34375 4.3125 -19.34375 L 5.59375 -19.34375 C 6.070312 -19.34375 6.476562 -19.316406 6.8125 -19.265625 C 7.15625 -19.210938 7.457031 -19.128906 7.71875 -19.015625 C 7.976562 -18.910156 8.222656 -18.753906 8.453125 -18.546875 C 8.679688 -18.347656 8.921875 -18.085938 9.171875 -17.765625 L 9.609375 -17.203125 L 9.609375 -19.234375 L 15.59375 -19.234375 L 15.59375 0 L 9.609375 0 L 9.609375 -2.109375 C 9.359375 -1.628906 9.132812 -1.242188 8.9375 -0.953125 C 8.738281 -0.671875 8.519531 -0.453125 8.28125 -0.296875 C 8.039062 -0.148438 7.769531 -0.0507812 7.46875 0 C 7.175781 0.0507812 6.789062 0.078125 6.3125 0.078125 Z M 9.609375 -12.703125 C 9.609375 -14.148438 9.160156 -14.875 8.265625 -14.875 C 7.390625 -14.875 6.953125 -14.148438 6.953125 -12.703125 L 6.953125 -6.765625 C 6.953125 -5.304688 7.398438 -4.578125 8.296875 -4.578125 C 9.171875 -4.578125 9.609375 -5.304688 9.609375 -6.765625 Z M 9.609375 -12.703125 "/></g></g></g><g fill="#de9832" fill-opacity="1"><g transform="translate(214.025303, 50.179497)"><g><path d="M 0.78125 -4.546875 L 6.6875 -4.546875 L 6.6875 -6.984375 L 3.75 -6.984375 C 3.03125 -6.984375 2.488281 -7.039062 2.125 -7.15625 C 1.757812 -7.269531 1.476562 -7.460938 1.28125 -7.734375 C 1.175781 -7.890625 1.09375 -8.03125 1.03125 -8.15625 C 0.96875 -8.28125 0.914062 -8.453125 0.875 -8.671875 C 0.84375 -8.898438 0.816406 -9.207031 0.796875 -9.59375 C 0.785156 -9.976562 0.78125 -10.523438 0.78125 -11.234375 L 0.78125 -15.78125 C 0.78125 -16.65625 0.894531 -17.328125 1.125 -17.796875 C 1.351562 -18.273438 1.71875 -18.640625 2.21875 -18.890625 C 2.46875 -19.015625 2.789062 -19.101562 3.1875 -19.15625 C 3.59375 -19.207031 4.132812 -19.234375 4.8125 -19.234375 L 12.171875 -19.234375 L 12.171875 -14.6875 L 6.765625 -14.6875 L 6.765625 -12.4375 L 8.859375 -12.4375 C 9.816406 -12.4375 10.5625 -12.347656 11.09375 -12.171875 C 11.632812 -11.992188 12.046875 -11.691406 12.328125 -11.265625 C 12.421875 -11.085938 12.503906 -10.90625 12.578125 -10.71875 C 12.660156 -10.53125 12.71875 -10.289062 12.75 -10 C 12.789062 -9.71875 12.816406 -9.34375 12.828125 -8.875 C 12.835938 -8.414062 12.84375 -7.820312 12.84375 -7.09375 L 12.84375 -4.46875 C 12.84375 -4.195312 12.8125 -3.804688 12.75 -3.296875 C 12.6875 -2.796875 12.628906 -2.421875 12.578125 -2.171875 C 12.453125 -1.671875 12.179688 -1.21875 11.765625 -0.8125 C 11.359375 -0.414062 10.90625 -0.179688 10.40625 -0.109375 C 10.25 -0.0859375 10.046875 -0.0664062 9.796875 -0.046875 C 9.546875 -0.0351562 9.046875 -0.0195312 8.296875 0 L 0.78125 0 Z M 0.78125 -4.546875 "/></g></g></g><g fill="#de9832" fill-opacity="1"><g transform="translate(227.660705, 50.179497)"><g><path d="M 1.09375 -19.234375 L 7.0625 -19.234375 L 7.0625 0 L 1.09375 0 Z M 1.09375 -25.046875 L 7.0625 -25.046875 L 7.0625 -20.953125 L 1.09375 -20.953125 Z M 1.09375 -25.046875 "/></g></g></g><g fill="#de9832" fill-opacity="1"><g transform="translate(235.811896, 50.179497)"><g><path d="M 1.09375 -19.234375 L 7.0625 -19.234375 L 7.0625 -17.171875 C 7.3125 -17.585938 7.566406 -17.929688 7.828125 -18.203125 C 8.085938 -18.484375 8.378906 -18.707031 8.703125 -18.875 C 9.035156 -19.039062 9.414062 -19.15625 9.84375 -19.21875 C 10.269531 -19.28125 10.769531 -19.3125 11.34375 -19.3125 C 12.539062 -19.3125 13.453125 -19.191406 14.078125 -18.953125 C 14.710938 -18.710938 15.164062 -18.304688 15.4375 -17.734375 C 15.507812 -17.554688 15.570312 -17.394531 15.625 -17.25 C 15.675781 -17.113281 15.710938 -16.890625 15.734375 -16.578125 C 15.765625 -16.265625 15.785156 -15.8125 15.796875 -15.21875 C 15.804688 -14.632812 15.8125 -13.804688 15.8125 -12.734375 L 15.8125 0 L 9.84375 0 L 9.84375 -12.703125 C 9.84375 -14.148438 9.363281 -14.875 8.40625 -14.875 C 7.507812 -14.875 7.0625 -14.125 7.0625 -12.625 L 7.0625 0 L 1.09375 0 Z M 1.09375 -19.234375 "/></g></g></g><g fill="#de9832" fill-opacity="1"><g transform="translate(252.715286, 50.179497)"><g><path d="M 6.71875 0 C 5.269531 0 4.179688 -0.0703125 3.453125 -0.21875 C 2.722656 -0.375 2.171875 -0.628906 1.796875 -0.984375 C 1.597656 -1.148438 1.445312 -1.320312 1.34375 -1.5 C 1.25 -1.675781 1.171875 -1.90625 1.109375 -2.1875 C 1.046875 -2.476562 1.007812 -2.867188 1 -3.359375 C 0.988281 -3.847656 0.984375 -4.503906 0.984375 -5.328125 L 0.984375 -13.859375 C 0.984375 -14.679688 0.988281 -15.335938 1 -15.828125 C 1.007812 -16.316406 1.046875 -16.710938 1.109375 -17.015625 C 1.171875 -17.316406 1.25 -17.554688 1.34375 -17.734375 C 1.445312 -17.910156 1.597656 -18.082031 1.796875 -18.25 C 2.171875 -18.601562 2.722656 -18.851562 3.453125 -19 C 4.179688 -19.15625 5.269531 -19.234375 6.71875 -19.234375 L 10.03125 -19.234375 C 11.457031 -19.234375 12.53125 -19.15625 13.25 -19 C 13.976562 -18.851562 14.53125 -18.601562 14.90625 -18.25 C 15.082031 -18.082031 15.226562 -17.910156 15.34375 -17.734375 C 15.457031 -17.554688 15.546875 -17.316406 15.609375 -17.015625 C 15.671875 -16.710938 15.707031 -16.316406 15.71875 -15.828125 C 15.726562 -15.335938 15.734375 -14.679688 15.734375 -13.859375 L 15.734375 -5.328125 C 15.734375 -4.503906 15.726562 -3.847656 15.71875 -3.359375 C 15.707031 -2.867188 15.671875 -2.476562 15.609375 -2.1875 C 15.546875 -1.90625 15.457031 -1.675781 15.34375 -1.5 C 15.226562 -1.320312 15.082031 -1.148438 14.90625 -0.984375 C 14.53125 -0.628906 13.976562 -0.375 13.25 -0.21875 C 12.53125 -0.0703125 11.457031 0 10.03125 0 Z M 9.765625 -12.578125 C 9.765625 -13.304688 9.648438 -13.832031 9.421875 -14.15625 C 9.203125 -14.488281 8.828125 -14.65625 8.296875 -14.65625 C 7.398438 -14.65625 6.953125 -13.960938 6.953125 -12.578125 L 6.953125 -6.53125 C 6.953125 -5.8125 7.0625 -5.285156 7.28125 -4.953125 C 7.507812 -4.628906 7.882812 -4.46875 8.40625 -4.46875 C 9.3125 -4.46875 9.765625 -5.15625 9.765625 -6.53125 Z M 9.765625 -12.578125 "/></g></g></g></svg>